<?xml version="1.0" encoding="UTF-8" standalone="no"?>
<svg width="206px" height="63px" viewBox="0 0 206 63" version="1.1" xmlns="http://www.w3.org/2000/svg" xmlns:xlink="http://www.w3.org/1999/xlink">
    <!-- Generator: Sketch 3.8.3 (29802) - http://www.bohemiancoding.com/sketch -->
    <title>JesseLogoK</title>
    <desc>Created with Sketch.</desc>
    <defs>
        <polygon id="path-1" points="103.000951 63 0.00444444444 63 0.00444444444 0.0234487633 103.000951 0.0234487633 205.997457 0.0234487633 205.997457 63"></polygon>
    </defs>
    <g id="Concepts" stroke="none" stroke-width="1" fill="none" fill-rule="evenodd">
        <g id="Desktop-HD-Copy-20" transform="translate(-32.000000, -11.000000)">
            <g id="JesseLogoK" transform="translate(32.000000, 11.000000)">
                <g id="Group-3">
                    <mask id="mask-2" fill="white">
                        <use xlink:href="#path-1"></use>
                    </mask>
                    <g id="Clip-2"></g>
                    <path d="M110.791852,5.26298587 C110.251111,6.01171378 109.614074,7.01808127 108.98,8.23281625 C108.64963,8.86622968 108.271111,9.60724028 107.847407,10.4520636 C109.078519,8.79217314 110.08,7.03425795 110.791852,5.26298587 L110.791852,5.26298587 Z M98.1785185,20.8347456 C98.0874074,21.2495512 97.98,21.6731131 97.8555556,22.104318 C98.0518519,21.6501837 98.2503704,21.194417 98.4488889,20.7404311 C98.36,20.771894 98.2703704,20.8033569 98.1785185,20.8347456 L98.1785185,20.8347456 Z M58.6900741,18.5019647 C58.140963,18.5019647 57.4881481,18.8330671 56.9439259,19.3878233 C56.279037,20.0653887 55.587037,20.8823852 55.3598519,22.1860177 C57.348963,21.0239682 58.9921481,19.8831413 59.0668889,18.6020671 C59.0671852,18.5973922 59.0671852,18.5936078 59.0671111,18.5907138 C59.0386667,18.5661519 58.9225926,18.5019647 58.6900741,18.5019647 L58.6900741,18.5019647 Z M86.5711111,4.57339929 C85.1222222,4.91889753 83.0318519,5.46178092 80.9496296,6.1589364 C74.9814815,8.15727562 73.9424444,9.77538869 73.7728148,10.3783781 C72.4358519,15.1297208 73.0691852,18.6210636 75.6548148,20.7556431 C76.5014815,21.4479011 77.5674074,22.0019894 78.82,22.40047 L78.9392593,22.076417 L78.9185185,22.0688481 L79.1933333,21.3155194 C79.76,19.7615936 80.2911111,18.3546678 80.7725926,17.1338481 C83.4437037,10.3528516 85.4303704,6.52476678 86.5711111,4.57339929 L86.5711111,4.57339929 Z M131.90963,18.7670989 C131.785926,18.7670989 131.31037,18.8249046 130.371852,19.5691802 C128.692593,20.9007138 128.004444,22.4688869 128.288889,24.3359576 C128.462222,24.1601661 128.635556,23.9837809 128.807407,23.8073216 C130.146667,22.2141413 131.077778,20.9792968 131.5,20.2350212 C131.974815,19.3982862 131.968148,18.9073463 131.93037,18.7676926 C131.924444,18.7673216 131.917778,18.7670989 131.90963,18.7670989 L131.90963,18.7670989 Z M46.4132593,19.8731979 C46.1744444,19.8731979 45.5857037,20.1078339 44.8934074,20.9870883 C43.6446667,22.5730707 43.0017037,23.5369187 43.6928148,25.5802261 C45.7535556,22.7257102 46.5364444,21.0627032 46.5791111,20.4548163 C46.6034074,20.1093922 46.5358519,19.9377562 46.4921481,19.8907102 C46.4786667,19.8762403 46.4417778,19.8731979 46.4132593,19.8731979 L46.4132593,19.8731979 Z M69.3026667,19.8586537 C69.0828148,19.8644417 68.8184444,19.8982792 68.5157037,19.959424 C67.5544444,20.1535442 66.4586667,21.212894 65.4301481,22.9423887 C64.794,24.0119788 64.2038519,25.3041837 63.7284444,26.6505583 C65.0722963,25.8482544 66.4907407,24.8301625 67.4771852,23.6687809 C68.5614815,22.3924558 69.307037,21.293258 69.6132593,20.525682 C69.5025185,20.3093004 69.3988148,20.0866113 69.3026667,19.8586537 L69.3026667,19.8586537 Z M129.057037,26.6392792 C129.087407,26.7020565 129.119259,26.7646113 129.151111,26.8267951 C130.488148,25.8509258 131.675556,25.1369258 132.320741,24.7681272 C133.211111,24.2594523 134.041481,23.8601555 134.793333,23.5785477 C135.301481,22.5671343 135.863704,21.5277456 136.465926,20.484424 C136.791111,19.9203922 137.121481,19.3668233 137.453333,18.8272792 C137.034815,18.9230777 136.636296,19.0113074 136.263704,19.0872191 C136.003704,19.1402756 135.757037,19.167212 135.531852,19.167212 C135.19037,19.167212 134.90963,19.106735 134.68,19.013311 C134.622222,19.3458975 134.508889,19.6751449 134.338519,19.9917032 C133.480741,21.5877032 131.037778,24.4792473 129.057037,26.6392792 L129.057037,26.6392792 Z M35.9833333,20.5929859 C35.9272593,20.5929859 34.5772593,20.6523498 31.8538519,25.8121908 C31.4122222,26.6489258 31.0219259,27.4510071 30.6853333,28.2128693 C32.8588148,26.7111095 34.2327407,25.1774417 34.2500741,25.1578516 L34.6295556,24.7305053 C35.2278519,23.8595618 35.6168889,23.0136254 36.0133333,21.9996148 C36.2983704,21.2706254 36.1171852,20.6567279 36.0074074,20.5951378 C36.0071852,20.5951378 36,20.5929859 35.9833333,20.5929859 L35.9833333,20.5929859 Z M28.768,4.40792226 C27.2919259,4.77464311 25.0792593,5.36368198 22.8080741,6.11181625 C16.0868148,8.32586926 14.4220741,10.0535088 14.028,10.8862367 C11.7505926,15.6982049 11.3974815,20.7319717 13.0591852,24.6968905 C14.1471111,27.2924311 15.9805185,29.1945265 18.3891111,30.2391095 C18.808,29.0855194 19.2120741,27.9052155 19.6051852,26.7569682 C20.1728148,25.0990813 20.7597778,23.3846502 21.3991111,21.7243145 C25.3587407,11.4406961 27.6177778,6.60461131 28.768,4.40792226 L28.768,4.40792226 Z M188.245185,23.36647 C187.918519,23.36647 186.94,23.8568163 186.051852,25.038159 C185.400741,25.9036855 184.406667,27.6968481 185.060741,29.9816184 C185.183704,30.4098551 185.402222,30.7286396 185.736296,30.9557067 C185.811111,30.8236219 185.885185,30.6902756 185.957778,30.5563357 C188.618519,25.6416678 188.446667,23.6540883 188.245185,23.36647 L188.245185,23.36647 Z M143.103704,17.5865724 C142.157778,18.6857703 141.395556,19.7233039 140.838519,20.6736466 C139.505185,22.9460989 138.300741,25.5336996 137.534815,27.7730565 C136.786667,29.9591343 136.695556,31.0879399 136.743704,31.5319823 C137.67037,31.1524982 139.039259,29.8086466 140.465926,27.8713781 C140.55037,27.6138127 140.639259,27.3546148 140.731852,27.0991272 C142.354074,22.5938481 145.525926,19.5696254 145.66,19.443106 L145.962963,19.1571201 L147.297037,19.4349435 C147.845185,18.7483993 149.051111,17.5452403 150.942222,17.2514629 C150.417037,17.2008551 149.40963,17.123311 148.165185,17.123311 C147.222963,17.123311 146.305185,17.1673145 145.437778,17.2539859 C144.725185,17.3251484 143.959259,17.4342297 143.103704,17.5865724 L143.103704,17.5865724 Z M87.7933333,31.6056678 C87.8777778,31.6711166 87.9281481,31.6711166 87.9444444,31.6711166 C87.9822222,31.6711166 88.0303704,31.6579081 88.0837037,31.6330495 C88.4955556,31.4391519 89.4496296,30.4258092 90.78,28.2078233 C91.9703704,26.2226926 93.142963,23.8047244 93.9962963,21.5738269 C94.9111111,19.1838339 94.6718519,18.2250318 94.4888889,18.035364 C94.4718519,18.0251979 94.4385185,18.01147 94.3711111,18.01147 C94.1414815,18.01147 93.7125926,18.1748693 93.1955556,18.6333816 C91.3992593,20.2269329 89.6822222,23.9002261 89.6651852,23.9371802 L89.342963,24.6310707 L88.3666667,24.2302155 C87.9481481,25.1120671 87.622963,26.0234523 87.3977778,26.9480459 C86.7992593,29.4060106 87.2666667,31.1450777 87.7933333,31.6056678 L87.7933333,31.6056678 Z M143.685926,32.1944099 C143.688148,32.1944099 143.696296,32.1954488 143.70963,32.1954488 C143.762222,32.1954488 145.025185,32.144841 147.926667,27.7410742 C150.397037,23.9923887 150.939259,22.040576 150.957778,21.3557385 C150.687407,21.5008834 150.204444,21.8644134 149.56963,22.6544735 C147.196296,25.6086466 146.738519,26.8148481 146.694815,26.9418127 L146.56963,27.6040177 L145.895556,27.5409435 L144.685185,27.5041378 C144.306667,28.226894 143.56963,29.8211873 143.522963,31.3469152 C143.505926,31.9251201 143.645926,32.1623534 143.685185,32.1944841 C143.685185,32.1944099 143.685185,32.1944099 143.685926,32.1944099 L143.685926,32.1944099 Z M81.2281481,31.8469823 L81.2696296,31.8568516 C81.4985185,31.911318 81.7244444,31.9707562 81.94,32.033311 C82.1888889,32.1052898 82.46,32.1858021 82.7614815,32.2771484 C82.5118519,31.1982827 82.46,30.0457314 82.6177778,28.9717633 C82.74,28.139629 82.9911111,27.1786749 83.3666667,26.1018869 C83.0088889,26.1803216 82.6333333,26.2417633 82.2444444,26.2852473 C81.7244444,27.8597279 81.2074074,29.4361378 80.7059259,30.9654276 L80.4622222,31.7078481 C80.6622222,31.7427244 80.8614815,31.7819788 81.0607407,31.8256855 L81.2281481,31.8469823 L81.2281481,31.8469823 Z M76.0133333,25.6182191 C74.9837037,27.6400813 73.257037,30.7996537 71.3965926,33.2274912 C72.724963,32.5064417 74.1311111,31.9988057 75.58,31.722689 L75.6851852,31.4078375 C76.3481481,29.4332438 76.9533333,27.6578163 77.5251852,26.010318 C77.0022222,25.9008657 76.497037,25.7699682 76.0133333,25.6182191 L76.0133333,25.6182191 Z M125.611852,34.6091873 C125.637037,34.6197986 125.702222,34.6367915 125.817037,34.6367915 C125.97037,34.6367915 126.245926,34.6060707 126.684444,34.4600353 C126.793333,34.4237491 126.92963,34.3632721 126.963704,34.2808304 C127.088889,33.9765159 126.797778,33.2102756 126.437037,32.4306784 C125.645185,33.6588445 125.535556,34.4305018 125.611852,34.6091873 L125.611852,34.6091873 Z M62.7482222,30.5518092 C62.6972593,30.9649823 62.6774815,31.3272509 62.690963,31.6162792 C62.7644444,33.201 63.0974074,35.0898869 64.2661481,35.0896643 C64.8935556,35.0895901 66.0895556,34.6763428 68.2239259,32.7078339 C71.4261481,29.754477 73.3737037,26.9751307 74.4888889,25.0383816 C73.6900741,24.6755194 72.9601481,24.2414947 72.310963,23.742689 C72.2846667,23.7226537 72.2559259,23.7002438 72.2272593,23.6778339 L72.2094815,23.6638834 C72.1834074,23.6434028 72.1574074,23.6229965 72.1316296,23.6022191 C72.125037,23.5969505 72.1184444,23.591682 72.1119259,23.5864876 C71.412963,24.9575724 70.4133333,26.1838092 69.2253333,27.1118905 C67.2923704,28.6220353 65.1156296,29.7778516 62.7482222,30.5518092 L62.7482222,30.5518092 Z M90.6407407,34.7380813 C91.2244444,34.9270813 91.8303704,35.1228339 92.4562963,35.3244488 L92.5318519,35.1286961 C92.5511111,35.0783852 93.6955556,32.1089258 95.3185185,28.1460106 C94.8422222,29.0309046 94.317037,29.9291555 93.7444444,30.8344558 C92.6977778,32.4912297 91.6555556,33.8020601 90.6407407,34.7380813 L90.6407407,34.7380813 Z M181.707407,30.8384629 C181.248148,31.8801519 180.922222,33.002576 180.937037,34.0740954 C180.941481,34.46753 181.000741,35.3823286 181.433333,35.3823286 C181.78,35.3823286 182.448148,35.0708163 183.303704,34.2364558 C182.347407,33.2608834 181.901481,31.9939081 181.707407,30.8384629 L181.707407,30.8384629 Z M53.5434815,33.6212968 C52.1645926,34.4196678 51.2736296,35.2569965 50.8297037,36.1686042 C50.6257037,36.587417 50.6419259,37.0586926 50.873037,37.4291979 C51.0623704,37.7328445 51.3571852,37.9070035 51.6818519,37.9070035 C52.3505926,37.9070035 53.0937778,37.2281767 53.7206667,36.0447562 C54.1148889,35.300629 53.9914074,34.5742367 53.5434815,33.6212968 L53.5434815,33.6212968 Z M20.2680741,37.3859364 C22.0118519,37.6032827 23.874963,37.9720813 25.8711852,38.4315583 C25.6899259,38.2430035 25.5194815,38.0376042 25.3605185,37.8157314 C24.8822963,37.148258 24.6167407,36.1461201 24.5677037,34.8294276 C24.0645185,34.9036325 23.539037,34.9651484 22.9967407,35.0132332 C22.718,35.0378693 22.4237037,35.0504099 22.1218519,35.0504099 C21.8194815,35.0504099 21.5051852,35.0379435 21.1822222,35.013159 C20.8782222,35.8081908 20.5725185,36.6018127 20.2680741,37.3859364 L20.2680741,37.3859364 Z M42.3585926,32.9490742 C40.8903704,34.8864912 40.0586667,36.7911837 40.2463704,37.8707173 C40.3008889,38.1840106 40.4367407,38.3877774 40.686963,38.5314382 C40.9403704,38.6768799 41.1902963,38.7506396 41.4297037,38.7506396 C42.1234815,38.7506396 42.6414074,38.1524735 42.8884444,37.7959929 C43.3373333,37.1480353 43.6048889,36.2868127 43.6041481,35.4920777 C43.6036296,34.9368763 43.0071852,33.9310283 42.3585926,32.9490742 L42.3585926,32.9490742 Z M74.0287407,36.3978975 C70.9482963,37.7619329 69.6787407,40.5297774 69.1574074,42.6802367 C70.2120741,42.4054558 71.2573333,42.0917915 72.2799259,41.7431025 L72.4616296,41.1858975 C72.9527407,39.6799823 73.4788148,38.0690671 74.0287407,36.3978975 L74.0287407,36.3978975 Z M31.4842963,39.8203039 C37.2797778,41.2999505 43.8485926,42.9769081 51.4495556,43.8272226 C53.4295556,44.0487244 55.4104444,44.1610707 57.3372593,44.1610707 C59.3761481,44.1610707 61.4065926,44.0353675 63.382,43.7872261 C63.4168148,43.6008975 63.454963,43.4159046 63.4961481,43.2335088 C63.8533333,41.6510141 64.5878519,40.0260742 65.6051111,38.5199364 C64.8181481,38.9345936 64.0163704,39.1871873 63.2117778,39.1871873 C61.5822222,39.1871873 60.1794815,38.1720636 59.0423704,36.1700141 C58.8626667,35.8536784 58.7062963,35.5224276 58.5732593,35.1768551 C58.4938519,35.5269541 58.3714074,35.8863286 58.1975556,36.2569823 C57.0034074,38.8031025 54.3671111,40.6511767 51.929037,40.6511767 C51.3668148,40.6511767 50.8362963,40.5503322 50.3520741,40.3515371 C49.2418519,39.8955477 48.5125926,39.1051166 48.2433333,38.0658763 C47.8952593,36.7223958 48.3862222,35.0854346 49.5903704,33.5746961 C50.1425926,32.8819187 51.0265185,32.2462792 52.406963,31.5585477 C51.9593333,30.7714558 51.4872593,29.8950212 51.0928148,28.8951837 C50.8379259,28.2487102 50.6301481,27.6239046 50.4714815,27.0272968 C49.3988148,27.5741873 48.1786667,28.2072297 47.3496296,28.6776148 C46.7515556,29.0170283 46.4448889,29.1621731 46.2576296,29.2328905 C46.1788148,29.2877279 46.101037,29.342417 46.0245185,29.3969576 C47.5628889,31.3711802 49.129037,33.6363604 47.5614074,37.031682 C46.906,38.4512968 45.9725926,39.6238834 44.8620741,40.4225512 C43.8156296,41.175212 42.6637037,41.5730247 41.5308148,41.5730247 C40.0862222,41.5730247 38.8448889,40.9101519 38.1251852,39.7541873 C37.4414074,38.6561025 37.4095556,37.2632756 37.9900741,35.684417 C35.6142222,37.8877845 33.3307407,39.2701484 31.2604444,39.7631661 C31.335037,39.7821625 31.4093333,39.801159 31.4842963,39.8203039 L31.4842963,39.8203039 Z M68.922,48.6625654 C69.0180741,49.5895336 69.1465926,50.2886184 69.2695556,50.7794099 C69.4575556,50.2725159 69.7195556,49.517629 70.0698519,48.4740848 C69.6914074,48.539311 69.3084444,48.6021625 68.922,48.6625654 L68.922,48.6625654 Z M13.7618519,42.0546148 C11.5921481,42.8097986 9.88385185,44.3069576 8.4617037,46.6754311 C6.75414815,49.5191131 6.45125926,52.1306078 6.49792593,53.8205512 C6.54125926,55.3940671 6.88748148,56.4250707 7.15392593,56.9268445 C8.05244444,55.2305194 10.6657778,49.5703887 13.7618519,42.0546148 L13.7618519,42.0546148 Z M5.2042963,63 C4.04081481,63 2.97644444,62.4603074 2.12614815,61.4389505 C1.28577778,60.4294664 0.657555556,58.962583 0.258888889,57.0789647 C-0.47962963,53.5897739 0.379111111,49.5174064 2.61488889,45.9060742 C4.91422222,42.1921166 8.36585185,39.3560035 12.3339259,37.9202862 C13.3633333,37.5479258 14.4733333,37.3182615 15.7137037,37.2221661 C16.126,36.180477 16.5328889,35.1384912 16.9285185,34.1109753 C15.0068889,33.455894 13.1912593,32.4735689 11.6347407,31.2422862 C9.66103704,29.6808657 8.15666667,27.7883428 7.16325926,25.6170318 C5.13525926,21.1843993 5.43103704,15.8704346 8.01851852,10.2496325 C8.74785185,8.66535689 10.5502963,7.24284806 13.5288889,5.90055477 C15.7771852,4.88736042 18.6918519,3.93189753 22.192,3.06080565 C28.1168148,1.58613074 33.7746667,0.846975265 33.8311852,0.839628975 L35.3124444,0.648254417 L34.6506667,1.98958304 C34.5948148,2.10274558 29.0201481,13.4391095 24.7786667,25.3024028 C24.1105185,27.1710318 23.3981481,29.1201731 22.6559259,31.1105724 C23.3974074,31.1015936 24.1591852,31.0122509 24.9281481,30.8442509 C25.388,28.4391943 26.2291852,25.9635689 27.3201481,23.8171166 C28.6883704,21.1249611 30.3694074,19.1216502 32.1812593,18.0237138 C33.5656296,17.1849011 34.799037,16.7595583 35.8472593,16.7595583 C36.9681481,16.7595583 37.8662963,17.2330601 38.4445926,18.1289364 C39.4574815,19.6977774 39.3083704,22.5013887 38.0647407,25.2713852 C36.2791852,29.2486219 31.2251852,32.484106 29.1794815,33.6675265 C29.1799259,34.4080177 29.338963,34.9667067 29.6461481,35.2971413 C29.9222222,35.5941095 30.3614074,35.7445972 30.9514815,35.744523 C31.6578519,35.7444488 32.544963,35.5340777 33.5881481,35.1193463 C35.5245185,34.3493958 37.7695556,32.5597208 40.2666667,29.7966254 C39.186,28.034629 38.2413333,26.037106 38.5928889,24.1336007 C39.0531111,21.641947 40.8105926,19.7190742 41.8172593,18.794629 C43.2594815,17.4702191 44.9005926,16.5671449 45.9008889,16.5474064 C45.9224444,16.5469611 45.9439259,16.5468127 45.9654815,16.5468127 C47.0094815,16.5468127 48.0817037,17.0549682 48.7637037,17.8730035 C49.3477037,18.5735724 49.5866667,19.4167633 49.4365926,20.2471166 C49.2042222,21.5319753 47.0583704,24.9114912 45.2952593,27.3349505 C46.9151111,26.2823534 48.6808889,25.4160848 50.0994074,24.7929859 C49.9602963,22.2925018 50.8892593,20.2486007 52.9918519,18.4006749 C55.0833333,16.56247 56.8225185,15.6689682 58.3088148,15.6689682 C59.324,15.6689682 60.2185926,16.1028445 60.8958519,16.9236254 C61.3960741,17.5298799 61.5862963,18.2691095 61.4457778,19.0613216 C61.1144444,20.9289117 59.0995556,22.5492509 58.0803704,23.1451166 C57.5900741,23.4317703 56.6656296,23.9084629 55.4240741,24.5348269 C55.5345926,25.1295795 55.7098519,25.7733816 55.9475556,26.4562155 C56.3648148,27.6553675 56.8192593,28.6716784 57.234,29.5749011 C57.602,29.453947 57.9517037,29.3479081 58.2794815,29.2580459 C59.0339259,25.4056219 61.2137037,21.4190353 63.0508889,18.9162509 C64.3305926,17.1728057 66.3665185,15.9236396 68.4061481,15.585265 C68.3364444,13.8622261 68.5445926,11.9408375 69.0271852,9.86050177 C69.6051111,7.36929329 73.4094815,5.18492226 80.6577778,3.18265018 C85.7992593,1.76236749 90.86,0.969858657 90.9103704,0.961992933 L92.5866667,0.701904594 L92.5666667,0.734925795 L92.6140741,0.727727915 L91.7488889,2.18622615 C91.717037,2.2394311 88.5251852,7.70054417 83.9777778,21.1007703 C83.8592593,21.4503498 83.7392593,21.8053463 83.617037,22.1693958 C83.8777778,22.0290742 84.1133333,21.8654523 84.3207407,21.6797173 L84.3511111,21.701682 C84.3703704,21.6840954 84.3903704,21.6663604 84.4088889,21.6482544 C85.1577778,20.942417 85.8222222,20.2492686 86.3859259,19.5869894 C87.4874074,17.583159 88.3918519,16.1709647 88.4303704,16.1111555 L88.7948148,15.5429682 L89.6140741,15.8915088 L90.2414815,16.1222862 C91.9807407,14.0851378 93.2696296,13.5550177 95.0844444,13.2869152 C95.2251852,13.266212 95.3659259,13.2556749 95.502963,13.2556749 C96.1185185,13.2556749 96.6911111,13.4676042 97.16,13.8687562 C98.1785185,14.7172155 98.6496296,16.3777739 98.5140741,18.537583 C98.9148148,18.3141519 99.3014815,18.0858233 99.6666667,17.8574205 C99.8933333,17.3570565 100.115556,16.86953 100.33037,16.4053039 C104.188148,8.04938163 107.188889,2.00969258 110.677037,0.393063604 C111.205926,0.147816254 111.696296,0.0234487633 112.133333,0.0234487633 C112.865185,0.0234487633 113.460741,0.366127208 113.80963,0.988261484 C114.782963,2.72450883 113.684444,6.52216961 110.871111,11.1469187 C109.462963,13.4609258 107.299259,15.5776219 104.436296,17.4410565 C104.428148,17.4587915 104.419259,17.4763039 104.411111,17.4939647 C105.796296,16.5085972 107.541481,15.4821943 109.296296,15.0189329 C109.734074,14.9031731 110.117037,14.847 110.466667,14.847 C111.491852,14.847 111.994074,15.3428375 112.234074,15.7588304 C112.654074,16.4864099 112.608148,17.5605265 112.094815,19.0424735 C111.719259,20.12453 111.101481,21.4176996 110.258519,22.8860671 L109.978519,23.3723322 C108.123704,26.5958693 106.371111,29.6419081 106.723704,31.4047208 C106.793333,31.3848339 106.894074,31.347212 107.033333,31.2764947 C107.616296,29.8361767 108.264444,28.3037703 108.962222,26.7168975 C111.39037,21.1946396 114.371111,16.0156537 114.400741,15.9639329 L114.571111,15.6690424 L119.76,14.3820318 L119.307407,15.5530601 C120.114074,15.1965053 121.144444,14.9112615 122.424444,14.8516749 C122.505926,14.8478905 122.586667,14.8458869 122.664444,14.8458869 C124.011852,14.8458869 124.625185,15.4366325 124.902222,15.9322473 C125.948889,17.8040671 123.958519,21.3458693 121.246667,25.78147 C118.214815,30.7424417 118.398519,31.9214841 118.455556,32.0923039 C118.48,32.0985371 118.525926,32.1066996 118.602222,32.1066996 C118.731852,32.1066996 118.894074,32.0834735 119.083704,32.0378375 C119.61037,31.9110212 120.991852,31.226258 124.394074,28.1106148 C123.698519,26.3330353 123.060741,23.8884276 124.046667,21.4878233 C126.4,15.7600177 129.64,15.1416678 130.924444,15.1416678 C131.976296,15.1416678 132.959259,15.5227845 133.664444,16.1740813 C133.682222,16.1025477 133.697037,16.0526078 133.703704,16.0299011 L133.766667,15.8284346 L133.92,15.6838834 C134.199259,15.42053 134.846667,14.8103428 140.667407,14.1450212 C142.333333,11.9915936 143.968889,10.2944523 145.531852,9.09737809 C147.044444,7.93889046 148.434074,7.30978092 149.551111,7.2780212 C149.731852,7.27282686 149.907407,7.27022968 150.072593,7.27022968 C151.840741,7.27022968 152.679259,7.55087279 152.876296,8.20884806 L153.041481,8.75811307 L152.575556,9.09173852 C152.544444,9.114 149.917778,11.0016996 147.05037,13.5967951 C147.106667,13.5936784 147.162963,13.5905618 147.218519,13.5876678 C147.359259,13.5801731 147.499259,13.5764629 147.635556,13.5764629 C151.251111,13.5764629 152.162222,16.1322297 152.199259,16.2410141 L152.54,17.2429293 C153.632593,17.4320777 154.224444,18.0582191 154.536296,18.5893039 C155.122222,19.5858021 155.188889,21.0253039 154.754815,22.7953887 C155.864444,20.9749187 156.581481,19.9121555 156.646667,19.8170989 C157.621481,18.3277314 158.982963,18.0149576 159.954815,18.0149576 C160.782963,18.0149576 161.400741,18.2437314 161.468889,18.2697774 L162.477037,18.6580919 L162.24963,18.9501625 C162.965185,18.7519611 163.767407,18.600212 164.603704,18.5694912 C164.686667,18.5664488 164.766667,18.5649647 164.845185,18.5649647 C166.117037,18.5649647 166.996296,18.9592898 167.460741,19.737106 C168.021481,20.6787668 167.842222,22.0622438 166.941481,23.7377915 C166.581481,24.4089011 165.98,25.208311 165.283704,26.1339435 C163.867407,28.017636 162.105185,30.3619929 161.475556,32.7901272 L161.465185,32.8290848 L161.451852,32.8668551 C161.075556,33.8836855 161.032593,34.3690601 161.042222,34.571788 C161.808889,34.4633004 163.541481,33.2307562 164.342963,32.5569753 L165.368889,33.5105088 C165.415556,33.5074664 165.461481,33.5059081 165.507407,33.5059081 C166.051111,33.5059081 166.547407,33.7277067 166.906667,34.1303428 C167.071852,34.3160777 167.202222,34.5344629 167.291852,34.770212 C166.957037,33.0269152 167.207407,30.8880318 168.046667,28.7412827 C169.216296,25.7503039 171.002963,23.6841413 172.296296,22.4776431 C173.911852,20.9709117 175.651111,19.9608339 177.068889,19.7066078 C177.406667,19.6460565 177.736296,19.6152615 178.04963,19.6152615 C180.133333,19.6152615 181.296296,20.9550318 181.523704,22.2827809 C181.726667,23.4663498 181.2,24.5305972 180.241481,24.8707527 C179.988148,24.9608375 179.741481,25.0064735 179.508889,25.0064735 C179.056296,25.0064735 178.654815,24.8371378 178.346667,24.5166466 C178.04,24.1980848 177.879259,23.7799399 177.795556,23.4031272 C176.524444,23.7858021 174.44963,25.3961979 172.837037,28.8925866 C171.268889,32.2910989 171.68963,33.2467845 171.78963,33.4038763 C171.824444,33.4584912 171.917037,33.6034876 172.346667,33.6034876 C172.720741,33.6034134 173.211111,33.4922544 173.802963,33.2729788 C175.011111,32.8251519 176.591111,31.3524064 178.374815,29.012576 C179.788148,26.2126749 181.576296,24.1664735 181.652593,24.0800247 L182.020741,23.6619541 L182.847407,23.9805901 C183.957037,21.9473004 185.688889,20.6019647 187.788148,20.1611873 C188.108889,20.0939576 188.421481,20.0598975 188.717778,20.0598975 C189.84963,20.0598975 190.803704,20.5643428 191.405926,21.4804028 C192.514815,23.1672297 192.38,26.0293887 191.045185,29.1367208 C190.72,29.8956148 190.459259,30.5252438 190.23037,31.0808905 C190.227407,31.0871979 190.225185,31.0935795 190.222222,31.0998869 C191.621481,30.8136042 193.102222,30.3699329 194.448889,29.9664806 C195.576296,29.6287739 196.640741,29.309841 197.477778,29.14147 C198.29037,28.9779223 199.122222,28.8950353 199.94963,28.8950353 C202.247407,28.8950353 204.151111,29.5201378 205.171852,30.6100601 C205.760741,31.238947 206.044444,32.0118657 205.991111,32.8453357 C205.805926,35.7592155 202.98963,37.6415724 202.86963,37.7202297 L202.062963,38.2503498 L201.692593,37.3578127 C201.632593,37.2167491 200.148889,33.8344876 196.056296,33.8344876 C194.882222,33.8344876 193.585926,34.1145371 192.205185,34.6668445 C190.501481,35.3481201 188.965926,35.7181802 187.634815,35.7686396 C187.191852,36.3207986 186.631111,36.9726148 185.826667,37.8709399 C184.601481,39.2388339 183.042963,39.9920883 181.437037,39.9920883 C179.272593,39.9920883 177.566667,38.645417 176.951111,36.6205866 C176.124444,37.2981519 175.182963,37.808311 174,38.2358057 C173.153333,38.5417527 172.351852,38.6967668 171.618519,38.6967668 C170.139259,38.6967668 168.936296,38.0788622 168.140741,36.9098375 C167.828889,36.4528092 167.591111,35.9232827 167.425926,35.3388445 C167.441481,35.4908905 167.440741,35.6450883 167.422963,35.7980247 C167.246667,37.3503922 166.095556,38.4308163 164.558519,38.4866926 C164.528889,38.4878057 164.5,38.4883251 164.47037,38.4883251 C163.605185,38.4883251 162.88,38.016159 162.579259,37.2560777 C162.522963,37.1141237 162.483704,36.9681625 162.461481,36.8196042 C161.48963,37.5802792 160.371111,38.2158445 159.235556,38.3602473 C159.173333,38.3682615 159.11037,38.3722686 159.048889,38.3722686 C158.894074,38.3722686 158.745185,38.3476325 158.604444,38.2988057 C158.011852,38.2499046 157.478519,37.9719329 157.088889,37.5045901 C156.385926,36.6621413 156.173333,35.3063428 156.471852,33.5838233 C156.851111,31.4002686 158.785926,28.392371 160.492593,25.7385795 C161.208889,24.6244664 161.885926,23.5722403 162.268889,22.8351625 C162.28,22.814311 162.28963,22.7948693 162.297778,22.7768375 C161.125185,22.781735 158.168148,24.3254205 156.28963,28.0359647 C153.82963,32.8937915 152.348148,36.789477 152.333333,36.8282862 L152.162963,37.2796007 L147.221481,37.8979505 L147.661481,36.6703781 C147.68963,36.5913498 148.087407,35.4895548 148.931111,33.6255265 C148.911111,33.6508304 148.89037,33.6759859 148.87037,33.7012155 C146.915556,36.1132473 145.076296,37.3362933 143.404444,37.3362933 C142.952593,37.3362933 142.511111,37.2475442 142.093333,37.0724947 C141.048148,36.6343145 139.896296,35.6727668 139.625185,33.5702438 C137.86,35.3086431 135.775556,36.9298728 134.056296,37.0412544 C133.996296,37.0451873 133.936296,37.0471166 133.877778,37.0471166 C133.088889,37.0471166 132.428889,36.6856643 132.02,36.0293216 C131.422963,35.0720777 131.356296,33.506947 131.821481,31.3774134 C132.140741,29.9145371 132.71037,28.2130177 133.492593,26.3736254 C132.423704,26.9936078 131.203704,27.7663039 130.07037,28.6362827 C131.327407,31.3100353 132.141481,34.224212 129.914815,36.3232473 C129.12963,37.0638869 127.988148,37.4887102 126.783704,37.4887102 C125.36,37.4887102 124.1,36.8915088 123.494074,35.930258 C122.957037,35.0772721 122.951111,33.9973675 123.477778,32.8897102 C123.78,32.2545901 124.193333,31.6024028 124.712593,30.9404205 C124.491111,31.1294947 124.318519,31.2708551 124.191111,31.3683604 C121.945926,33.6640389 120.356296,35.0630989 119.334074,35.6449399 C118.41037,36.1704594 117.045185,36.7968233 115.788889,36.7968233 C114.662963,36.7968233 114.066667,36.2931201 113.763704,35.8705972 C113.174815,35.0474417 113.159259,33.7944912 113.716296,32.1464735 C114.603704,29.5254806 115.554815,27.8805053 116.561481,26.1389152 C117.399259,24.6911025 118.264444,23.1939435 119.119259,21.0303498 C119.536296,19.9758975 119.548889,19.470265 119.527407,19.2788163 C118.834074,19.3934629 117.054815,20.7825795 115.591111,23.4370389 C113.520741,27.1906961 109.945926,35.6800389 109.90963,35.7653746 L109.717037,36.2241095 L105.08963,36.5043816 L105.452593,35.4284841 C105.36963,35.469 105.288889,35.5046926 105.21037,35.535636 C104.785185,35.703265 104.377037,35.7882297 103.998519,35.7882297 C103.297037,35.7882297 102.694815,35.4918551 102.302222,34.9536466 C101.613333,34.0099081 101.605926,32.4580601 102.279259,30.3412155 C103.281481,27.1932933 104.631852,24.7257562 106.196296,21.8686431 C106.516296,21.2834629 106.847407,20.6783958 107.186667,20.0483958 C107.297778,19.8411413 107.382963,19.6665371 107.448148,19.520576 C106.60963,20.0062473 105.114815,21.1591696 103.339259,23.0900565 C99.9140741,26.814477 97.4192593,35.2576643 97.3940741,35.3424064 L97.2407407,35.8668127 L94.8237037,36.0831943 C108.154815,40.3305371 128.865926,46.4511837 147.775556,47.5214417 C150.355556,47.6675512 152.914074,47.7415336 155.38,47.7415336 C178.168889,47.7412367 189.45037,41.6147279 193.157037,39.6014735 C194.085185,39.0973993 194.398519,38.9275442 194.746667,38.9275442 C195.148148,38.9275442 195.493333,39.1953498 195.585926,39.5789152 C196.217037,42.1872191 195.422222,45.1727809 193.288148,48.2129576 C191.614074,50.5969399 189.68963,52.2252933 189.168889,52.5026714 C189.111852,52.533318 183.239259,55.5718622 168.451852,55.5718622 C168.451111,55.5718622 168.451852,55.5718622 168.451111,55.5718622 C161.23037,55.571788 153.102963,54.8421307 144.293333,53.4032226 C122.695556,49.8756678 106.245926,44.109424 94.2348148,39.8991837 C91.357037,38.8904417 88.8718519,38.0192014 86.6459259,37.2965936 C86.4814815,37.2461343 82.9437037,36.1625194 81.5007407,35.8326042 C80.7,35.6494664 79.9274074,35.5923286 79.1911111,35.5713286 C78.7185185,36.9985124 78.302963,38.2444876 77.9222222,39.3683216 C79.1074074,38.771417 80.0696296,38.2249717 80.78,37.8215194 C81.3466667,37.4992473 81.757037,37.2663922 82.0740741,37.1192438 C82.2037037,37.0591378 82.3385185,37.0287138 82.4748148,37.0287138 C82.8118519,37.0287138 83.1103704,37.2113322 83.2740741,37.5171307 C83.397037,37.7479823 83.6533333,38.2285336 82.882963,41.0357809 C82.5592593,42.2168269 82.037037,43.8109717 81.6333333,44.4167067 C80.7607407,45.7253852 77.3014815,46.818053 75.0555556,47.4083534 C73.7948148,50.6837597 72.7202963,53.0170601 71.7751111,54.5327703 C70.712,56.2375548 69.5146667,56.5954452 68.6974815,56.5954452 C67.9596296,56.5954452 67.2337778,56.3156926 66.54,55.7638304 L66.4793333,55.715523 C64.9737778,54.4973746 63.8012593,52.0976608 63.3354074,49.3371625 C61.7806667,49.4733286 60.1951852,49.5712792 58.6116296,49.6288622 C58.1934815,49.6440742 57.7621481,49.6517173 57.3295556,49.6517173 C48.7428148,49.6517173 38.952,46.6338021 31.802963,44.430212 C28.7383704,43.4856572 26.0917037,42.6697739 24.1900741,42.2847986 C22.4865926,41.9399682 20.5220741,41.5827456 18.654,41.4850177 C16.4811111,46.9217173 12.7361481,55.9402155 10.5265926,59.2762473 C8.93614815,61.6775936 7.046,63 5.2042963,63 L5.2042963,63 Z" id="Fill-1" fill="#0A0A08" mask="url(#mask-2)"></path>
                </g>
                <path d="M148.26963,27.8629187 C144.196296,34.0447102 142.32963,33.2982085 142.399259,31.0029753 C142.468889,28.707742 143.898519,26.3687279 143.898519,26.3687279 L145.595556,26.4203004 C145.595556,26.4203004 145.885926,25.2378445 148.622222,21.8323569 C151.358519,18.4268693 153.397037,20.081788 148.26963,27.8629187 L148.26963,27.8629187 Z M151.636296,17.6694594 C148.751111,17.5818233 147.318519,20.0059505 147.318519,20.0059505 L145.883704,19.707053 C145.883704,19.707053 142.736296,22.6746572 141.16,27.0513392 C139.583704,31.4280212 139.484444,34.9270071 142.077778,36.0134417 C145.454074,37.4280106 149.588148,31.1117597 152.098519,26.2350848 C154.646667,21.2847244 154.521481,17.7570954 151.636296,17.6694594 L151.636296,17.6694594 Z" id="Fill-4" fill="#FFFFFF"></path>
                <path d="M163.603704,34.7952933 C162.367407,35.9609788 162.92963,37.4125018 164.205185,37.3661237 C165.480741,37.3196714 166.188148,36.4053922 166.303704,35.387894 C166.419259,34.3702473 165.352593,33.1466078 163.603704,34.7952933" id="Fill-5" fill="#FFFFFF"></path>
                <g id="Group-9" transform="translate(0.444444, 1.261484)" fill="#FFFFFF">
                    <path d="M16.4707407,31.7893251 L17.331037,29.4040071 C10.7626667,26.5671519 8.34562963,17.8162367 12.5362222,8.96180565 C14.4614074,4.89389046 29.6224444,1.6200424 29.6224444,1.6200424 C29.6224444,1.6200424 27.69,4.03519081 21.3765926,20.4315159 C20.2008889,23.4849011 19.2255556,26.6590919 18.0893333,29.6997138 C18.0663704,29.6917739 18.0439259,29.6828693 18.021037,29.6747067 L17.1785185,32.0107527 C17.1897037,32.0140177 17.2008148,32.0174311 17.2120741,32.0206961 C17.0182963,32.5275901 16.8244444,33.0298834 16.6306667,33.5300247 L16.5454074,33.7661449 L16.5397778,33.7640671 C16.2866667,34.4158834 16.0339259,35.0610954 15.782,35.6989611 C16.2614074,35.6952509 16.8002222,35.6999258 17.3940741,35.7179576 C17.8136296,35.7306466 18.2366667,35.750682 18.6511111,35.774947 C19.0661481,34.7079541 19.4787407,33.6385866 19.8842222,32.5744876 C19.8919259,32.5754523 19.8994815,32.5760459 19.9071852,32.5770848 L20.804963,30.2889753 C20.7865926,30.287417 20.7684444,30.2864523 20.7500741,30.2847456 C21.6405185,27.9127102 22.4877037,25.6017456 23.2565926,23.4509152 C27.564,11.403371 33.1645926,0.0533533569 33.1645926,0.0533533569 C33.1645926,0.0533533569 10.7644444,2.94727208 7.97614815,9.00410247 C2.30444444,21.3245724 9.01,29.2755583 16.4707407,31.7893251" id="Fill-6"></path>
                    <path d="M62.5306667,46.1803357 C62.4507407,45.2294735 62.5468148,44.0052403 62.6648889,43.0074064 C59.1127407,43.4506325 55.0860741,43.5452438 50.5918519,43.0426537 C36.9686667,41.5184099 26.4737037,37.3163322 18.7133333,36.5219682 C18.2721481,36.4952544 17.8197778,36.473364 17.3715556,36.459636 C16.2995556,36.4271343 15.403037,36.4396749 14.7268148,36.4648304 C13.7031111,36.5641166 12.7400741,36.7661767 11.8367407,37.0929011 C3.86392593,39.9776926 -1.16474074,48.540424 0.272592593,55.3315124 C1.70992593,62.1226749 5.99237037,61.9307067 9.09103704,57.2520106 C10.9007407,54.5197102 13.959037,47.5591378 17.0482963,39.8412297 C16.9721481,39.8324735 16.8945185,39.8251272 16.8145185,39.8202297 C15.7328148,39.7558198 14.6294074,39.9661908 14.0046667,40.1166042 C10.4695556,48.7434488 7.43644444,55.2386078 6.82311111,56.1957032 C5.78851852,57.8100318 3.02822222,51.3078975 7.00725926,44.6812473 C8.76414815,41.7552721 10.8954815,40.220788 13.3042222,39.5358021 C13.5806667,39.4518021 15.2144444,38.9817138 16.8583704,39.0795159 C17.0231111,39.0892367 17.1807407,39.1071201 17.3317778,39.1310883 C17.3384444,39.1146148 17.345037,39.0980671 17.3516296,39.0814452 C19.3182222,39.1280459 21.406963,39.4782933 23.5797037,39.918106 C30.2742963,41.2735336 45.478963,47.6951555 57.8137778,47.2468834 C59.4776296,47.1864064 61.0791111,47.0835583 62.6088148,46.947689 C62.5794815,46.7001413 62.5528148,46.4436148 62.5306667,46.1803357" id="Fill-8"></path>
                </g>
                <path d="M21.1203704,33.9075053 C21.6460741,33.9391166 22.1431111,33.9358516 22.6018519,33.8951873 C23.1652593,33.84547 23.6937037,33.7820989 24.190963,33.7074488 C24.2258519,32.8998763 24.3512593,32.0414735 24.4721481,31.3688799 C23.682,31.5221131 22.8654074,31.6039611 22.0295556,31.5903816 L21.1203704,33.9075053" id="Fill-10" fill="#FFFFFF"></path>
                <path d="M82.0859259,37.5269258 C80.6511111,38.1918021 76.1111111,41.3695548 68.6031852,43.2461979 C68.459037,43.9945548 68.3131852,44.9637456 68.2839259,45.9290035 C68.2661481,46.5160389 68.2923704,47.0747279 68.3380741,47.5719753 C75.2614815,46.5042403 79.8718519,44.8091767 80.6437037,43.6518763 C81.3022222,42.6647279 82.8503704,37.1723746 82.0859259,37.5269258" id="Fill-11" fill="#FFFFFF"></path>
                <g id="Group-15" transform="translate(82.962963, 0.445230)" fill="#FFFFFF">
                    <path d="M11.4844444,21.1185053 C9.67333333,25.8516678 6.66074074,30.9128905 5.16444444,31.6164276 C3.65555556,32.3259011 2.44518519,29.6408693 3.33333333,25.9932509 C3.67555556,24.5888481 4.19259259,23.3890283 4.69925926,22.4430636 L5.65259259,22.8344205 C5.65259259,22.8344205 7.43555556,18.9911979 9.37777778,17.26853 C11.3192593,15.5458622 13.2948148,16.3852686 11.4844444,21.1185053 L11.4844444,21.1185053 Z M11.9422222,13.3377456 C10.18,13.5980565 9.01703704,14.0938198 7.1962963,16.3782933 L5.8437037,15.8026855 C5.8437037,15.8026855 0.84962963,23.579364 0.14962963,28.346364 C-0.02,29.5058905 0.0822222222,30.7791731 0.427407407,31.8959576 C1.09407407,32.1692544 2.40592593,32.7073145 3.99037037,33.3578693 C4.65925926,33.6325018 5.30962963,33.8928127 5.89555556,34.1240353 C7.05185185,33.3242544 8.35481481,31.8989258 9.78148148,29.6409435 C16.2022222,19.4802085 15.0681481,12.875894 11.9422222,13.3377456 L11.9422222,13.3377456 Z" id="Fill-12"></path>
                    <path d="M26.2125926,15.0288763 C22.577037,15.9890141 18.8607407,19.6228304 18.8607407,19.6228304 C18.8607407,19.6228304 19.5540741,18.1513463 20.5259259,16.1251802 C20.5422222,16.1147915 20.5577778,16.1042544 20.5740741,16.0937915 L21.4481481,14.2934311 C21.4237037,14.3153216 21.4,14.3374346 21.3755556,14.3592509 C22.5607407,11.9068516 23.94,9.09641343 24.9837037,7.09666431 C27.2525926,2.74981272 30.0022222,0.157017668 28.4051852,4.3905583 C27.2985185,7.32321201 25.4222222,10.2321201 23.0111111,12.7693357 L21.8051852,15.2549788 C23.737037,13.8582191 25.5985185,12.1044594 26.9,9.96498233 C30.977037,3.26434982 30.977037,-1.15143816 27.7251852,0.355515901 C24.4740741,1.86254417 21.4851852,7.92716608 17.7688889,15.9767703 C17.5162963,16.5232155 17.262963,17.0796042 17.0088889,17.6417067 C14.9214815,18.9793251 12.8014815,19.8734205 12.4659259,19.9855442 C12.8185185,19.8720106 14.9540741,19.3073852 16.6940741,18.4950636 C13.2881481,26.0808127 9.99037037,34.6521519 9.99037037,34.6521519 L13.3392593,34.3522898 C13.3392593,34.3522898 15.8718519,25.6875265 19.462963,21.7821943 C23.0540741,17.8768622 26.5851852,15.9769929 24.602963,19.6634947 C22.6214815,23.3500707 20.9355556,26.1088622 19.7540741,29.8197774 C18.6125926,33.4083286 19.7377778,34.770212 21.6303704,34.0248233 C21.9481481,33.8999364 22.3096296,33.6706431 22.6925926,33.3760495 L23.4503704,31.4545124 C23.0644444,31.5055654 22.7711111,31.3466184 22.6622222,30.8447703 C22.1925926,28.6894876 24.1622222,25.4040636 26.2777778,21.7214947 C28.3925926,18.039 29.8481481,14.0688869 26.2125926,15.0288763 L26.2125926,15.0288763 Z M13.2518519,19.5966138 C13.2518519,19.5966138 13.2859788,19.5845138 13.3518519,19.5567138 C13.2867725,19.5830138 13.2518519,19.5966138 13.2518519,19.5966138 L13.2518519,19.5966138 Z" id="Fill-14"></path>
                </g>
                <path d="M124.546667,28.4398622 C122.368148,30.4298905 120.161481,32.204576 118.945926,32.4973887 C115.985926,33.2103498 117.42963,29.6413145 120.24,25.0432792 C123.051111,20.4451696 126.173333,15.1444876 122.137037,15.3325972 C118.659259,15.4945124 117.263704,17.459311 117.263704,17.459311 L118.133333,15.2109011 L114.768889,16.0454841 C114.768889,16.0454841 111.808148,21.1743074 109.36963,26.7202367 C106.931111,32.2663145 105.903704,35.312947 105.903704,35.312947 L108.848148,35.1346325 C108.848148,35.1346325 112.451852,26.5648516 114.566667,22.7299399 C117.251852,17.8604629 121.419259,16.2453922 119.538519,21.0055654 C117.658519,25.7657385 115.763704,27.3158799 114.14963,32.0840671 C112.775556,36.1455265 115.488148,36.4068763 118.614074,34.6283322 C119.97037,33.8571943 122.431111,31.4329929 124.783704,28.9349576 C124.704444,28.7682933 124.624444,28.6011837 124.546667,28.4398622" id="Fill-16" fill="#FFFFFF"></path>
                <path d="M146.936296,14.0682933 C146.29037,14.102576 145.465185,14.156894 144.545185,14.2290954 C148.046667,10.7954841 151.785926,8.11995053 151.785926,8.11995053 C151.785926,8.11995053 151.657037,7.69074912 149.24963,7.75938869 C147.465185,7.81029329 144.377037,9.84692226 140.77037,14.5837951 C137.694074,14.9247668 134.724444,15.4000495 134.143704,15.9479046 C134.143704,15.9479046 133.359259,18.4757703 135.78,17.9822332 C136.674815,17.7998375 137.726667,17.5446466 138.861481,17.2789929 C138.196296,18.2852862 137.519259,19.3789929 136.834074,20.5659011 C131.606667,29.6214276 130.702963,36.1148799 133.680741,35.9218728 C135.415556,35.8093781 137.737778,33.7414346 139.374074,32.0350919 C139.388148,31.4837491 139.435556,30.8373498 139.546667,30.1475406 C139.585926,29.9034806 139.632593,29.660311 139.685185,29.4212226 C138.725926,30.5490636 137.526667,31.7253604 136.486667,32.0378375 C134.344444,32.6814912 136.392593,25.7975724 139.824444,19.9479223 C140.49037,18.8124382 141.374074,17.6541731 142.360741,16.5284841 C143.254815,16.3633781 144.155556,16.224689 145.034074,16.1369046 C148.298519,15.8107739 151.117778,16.1799435 151.117778,16.1799435 C151.117778,16.1799435 150.337778,13.8881237 146.936296,14.0682933" id="Fill-17" fill="#FFFFFF"></path>
                <path d="M164.532593,32.8509753 C164.532593,32.8509753 158.188889,38.1917279 160.377037,32.2691343 C161.360741,28.4725124 164.875556,24.9684064 165.913333,23.0381873 C166.993333,21.0288657 167.237778,18.9429647 164.308148,19.0507845 C161.72963,19.1455442 159.442222,20.5130671 159.442222,20.5130671 L160.857037,18.6982367 C160.857037,18.6982367 158.412593,17.756947 156.986667,19.9430247 C156.986667,19.9430247 154.871111,23.043159 152.083704,28.1488304 C149.295556,33.254576 148.08963,36.621477 148.08963,36.621477 L151.260741,36.224629 C151.260741,36.224629 152.740741,32.3118763 155.251111,27.3537986 C158.233333,21.4654876 163.916296,20.4563746 162.654074,22.8856219 C161.391111,25.3148693 157.45037,30.4390919 156.935556,33.4015018 C156.518519,35.8038869 157.24963,37.1776431 158.46,37.1855088 C158.559259,37.2399753 158.675556,37.262682 158.81037,37.2454664 C161.637037,36.8858693 164.532593,32.8509753 164.532593,32.8509753" id="Fill-18" fill="#FFFFFF"></path>
                <path d="M177.47037,30.9473216 C177.522963,30.7923816 177.575556,30.6431555 177.626667,30.4965265 C176.374815,31.9648198 175.008148,33.2409223 173.755556,33.7048516 C170.148148,35.0418021 169.695556,32.7680141 171.785926,28.2367633 C173.877037,23.7055124 176.744444,22.068106 178.184444,22.1969258 C178.184444,22.1969258 178.104444,24.3443428 179.64963,23.7956714 C181.195556,23.2470742 180.585926,19.511894 176.885185,20.1758057 C174.522963,20.5994417 170.405926,23.7558975 168.466667,28.7139011 C166.457037,33.8547456 168.028889,39.104523 173.403704,37.1622085 C174.856296,36.6372085 175.84,36.0014947 176.658519,35.1965936 C176.653333,34.2596078 176.817778,32.8624028 177.47037,30.9473216" id="Fill-19" fill="#FFFFFF"></path>
                <path d="M197.607407,29.61653 C195.887407,29.9623993 193.125185,30.9837562 190.546667,31.5338375 C189.748148,31.7464346 188.640741,31.9798834 187.556296,32.0040742 C187.446667,32.006523 187.341481,32.0061519 187.241481,32.0030353 C186.247407,31.9729081 185.702963,31.6861802 185.405185,31.4006396 C184.864444,31.0844523 184.465926,30.5988551 184.263704,29.8919788 C183.034815,25.6002615 186.763704,22.2097633 188.245926,22.2548057 C189.605185,22.2960636 189.594074,25.1589647 186.632593,30.6280177 C186.542963,30.7936431 186.452593,30.9551873 186.361481,31.1138375 C186.622963,31.2071873 187,31.2743428 187.54,31.2621731 C188.102222,31.2497067 188.677778,31.1744629 189.208889,31.0755477 C189.493333,30.3934558 189.825185,29.573417 190.282222,28.5093922 C192.277778,23.8634947 191.332593,19.9195018 187.924444,20.6349117 C185.577037,21.1275583 183.971852,22.8212862 183.105926,24.927371 L182.224444,24.2993004 C182.224444,24.2993004 177.993333,29.1074099 177.506667,33.9426784 C177.020741,38.7778728 182.039259,40.5579753 185.202963,37.0250777 C185.760741,36.4019788 186.219259,35.8774982 186.605185,35.4165371 C186.46,35.3988021 186.31037,35.3783958 186.157037,35.3542792 C185.045926,35.1807138 184.322222,34.8318763 183.853333,34.4805901 C181.865926,36.4305477 180.143704,36.4535512 180.108148,33.7739364 C180.079259,31.542 181.337778,29.1807244 182.425926,27.5625371 C182.385926,27.8928233 182.36,28.2253357 182.35037,28.5576254 C182.301481,30.1764064 182.63037,32.0160954 183.741481,33.2492332 L183.74,33.2454488 C183.740741,33.2456714 183.740741,33.2473039 183.742222,33.2496784 C183.945926,33.4760035 184.176296,33.6818481 184.435556,33.8621661 C184.412593,33.8877668 184.39037,33.9128481 184.368148,33.9380777 C184.748148,34.2031378 185.344444,34.4763604 186.271111,34.6212085 C186.588148,34.6707032 186.885185,34.7049859 187.162963,34.7280636 C187.180741,34.7060989 187.197778,34.6838375 187.214815,34.6620954 C188.457037,34.6760459 189.992593,34.3668339 191.88,33.6118728 C199.79037,30.4485901 202.402963,36.7393887 202.402963,36.7393887 C202.402963,36.7393887 205.002963,35.0314876 205.164444,32.483735 C205.326667,29.9360565 201.281481,28.8772261 197.607407,29.61653" id="Fill-20" fill="#FFFFFF"></path>
                <path d="M30.8222222,25.1179293 C35.3534074,16.533159 37.3240741,19.6953286 36.4337778,21.9722332 C35.6494815,23.9782155 34.8837037,25.3465548 32.7503704,27.3846678 C31.696,28.2495265 30.3005185,29.2457279 28.6716296,30.0528551 C29.1294074,28.6245583 29.8437778,26.9717915 30.8222222,25.1179293 L30.8222222,25.1179293 Z M40.4251852,30.135742 C38.3022963,32.4661484 35.876963,34.6227668 33.5588148,35.5446148 C29.7287407,37.067523 27.8512593,35.9799753 28.0723704,32.8713074 C28.1339259,32.8370247 29.4108148,32.5731519 31.6814074,31.0088375 C33.9520741,29.4445972 35.9346667,27.0198021 37.0107407,24.6229823 C39.1246667,19.91453 37.9608889,14.9419823 32.2708889,18.3897668 C26.5808889,21.8376254 23.6368889,34.1687067 25.6860741,37.0287138 C27.7351111,39.8886466 32.2805185,39.7847597 38.2142222,33.7110848 C39.1855556,32.7168127 40.0635556,31.7332261 40.8537778,30.7829576 L40.4251852,30.135742 L40.4251852,30.135742 Z" id="Fill-21" fill="#FFFFFF"></path>
                <path d="M50.0920741,25.8366784 C50.071037,25.7295265 50.0521481,25.6263074 50.0344444,25.5253887 C50.0482963,25.5180424 50.0625185,25.5103251 50.0763704,25.503053 C50.0511852,25.4146749 50.0288148,25.3282261 50.0091111,25.2457845 C48.4405185,25.9388587 46.4888148,26.9141343 44.798963,28.0968869 C44.9017037,28.2447774 45.002,28.3866572 45.0993333,28.5226007 C45.2544444,28.4105512 45.4128889,28.2996148 45.5728148,28.1892721 C45.7233333,28.1476431 46.0475556,27.9917385 46.6308889,27.6607102 C47.4897037,27.1734064 48.7394074,26.5239647 50.0920741,25.8366784" id="Fill-22" fill="#FFFFFF"></path>
                <path d="M43.5918519,27.6328834 C43.0065185,26.7388622 42.7268889,26.0130636 42.5980741,25.4731484 C41.8156296,23.1010389 42.5985926,21.875841 43.9408148,20.1711307 C45.4822222,18.21353 47.1828889,18.3394558 47.0527407,20.1914629 C46.9524444,21.6183498 44.6872593,24.8294205 43.6524444,26.2287032 C43.7531852,26.4469399 43.8780741,26.6847668 44.0325185,26.9411449 C46.0217037,24.2719929 48.1305926,20.8590848 48.3248889,19.7845972 C48.5919259,18.3079187 47.0752593,16.9998339 45.5921481,17.0289965 C44.1091111,17.0582332 39.7641481,20.1208198 39.0551111,23.9597385 C38.7081481,25.8383852 39.9035556,27.9943357 41.2151111,29.9848834 C41.2127407,29.9934912 41.211037,30.0011343 41.2094815,30.0087774 L41.2582222,30.0809046 C41.2634815,30.0793463 41.2686667,30.0778622 41.2747407,30.0751908 C41.4305926,30.3104205 41.5876296,30.5431272 41.7437778,30.7729399 C41.7402963,30.776576 41.736963,30.7801378 41.7334815,30.7837739 L42.0791852,31.2951943 C42.083037,31.290742 42.0867407,31.286364 42.0905185,31.2817633 C43.1522963,32.838212 44.0788148,34.2167173 44.0797037,35.1715866 C44.0819259,37.5473322 42.1501481,40.1612756 39.9648148,38.9070636 C38.1542222,37.8679717 39.4103704,34.6797562 41.5902222,31.8949929 L41.217037,31.3431307 C38.8059259,34.0404064 37.260963,37.053424 38.4795556,39.0104311 C40.0343704,41.507576 44.4488889,40.8415866 46.5108889,36.3755618 C47.5312593,34.1654417 47.0517037,32.5243993 46.1302963,31.0476466 C45.9394815,30.8313392 44.8928148,29.6203887 43.5918519,27.6328834" id="Fill-23" fill="#FFFFFF"></path>
                <path d="M68.4413333,32.9777173 C62.7923704,38.1874982 61.7118519,34.4474947 61.5673333,31.3339293 C61.5457778,30.87 61.5947407,30.2828905 61.7046667,29.6181625 C63.7263704,29.0085689 66.1040741,27.9609435 68.408963,26.1603604 C69.6536296,25.1879046 70.5957778,23.9336926 71.2106667,22.6264982 C70.7982222,22.1862403 70.3197778,21.6058834 69.8599259,20.8852049 C69.4321481,21.7490989 68.6744444,22.794424 67.762,23.8685406 C66.2237037,25.6795866 63.7282222,27.1380848 62.058963,27.9830565 C63.0426667,24.2302898 65.3756296,19.3908657 68.0331852,18.8541413 C68.3193333,18.7964099 68.5740741,18.7607915 68.7997037,18.7452827 C68.4576296,17.7759435 68.2900741,16.8258975 68.2105926,16.0578763 C66.522,16.3428975 64.6242963,17.3638834 63.370963,19.0713392 C61.7427407,21.2894735 59.3406667,25.4781201 58.6647407,29.5068551 L58.6548889,29.5110848 C58.6000741,29.888417 58.5225926,30.5457986 58.4974074,31.3778587 C58.4958519,31.4291343 58.4905926,31.479 58.4836296,31.5282721 C58.4763704,32.937424 58.7462222,34.2794205 59.4133333,35.4540106 C62.2467407,40.443106 65.8468889,37.3360707 69.0895556,34.0009293 C71.4748889,31.5478622 73.9019259,27.0665512 75.1133333,24.6639435 C74.1133333,26.4881237 72.0672593,29.6335972 68.4413333,32.9777173" id="Fill-24" fill="#FFFFFF"></path>
                <path d="M75.1133333,24.6639435 C75.6718519,23.6461484 75.9044444,23.039523 75.9044444,23.039523 C75.9044444,23.039523 75.6118519,23.6764982 75.1133333,24.6639435" id="Fill-25" fill="#FFFFFF"></path>
                <path d="M59.9547407,17.1145548 C58.3580741,15.1795124 55.8023704,16.3918728 53.194963,18.68347 C51.7840741,19.9234346 50.863037,21.2974134 50.6235556,23.0551802 L50.644,23.0602261 C50.6415556,23.0708375 50.4024444,24.1451025 51.0252593,26.6093746 C51.1311852,27.0284841 51.2227407,27.3960954 51.3021481,27.7191837 C51.3680741,27.9035088 51.4371852,28.0900601 51.5124444,28.2809894 C52.0142963,29.5532332 52.6545926,30.6280177 53.208,31.5914947 C53.2040741,31.5932014 53.2002963,31.5951307 53.1962963,31.5969117 C53.302963,31.7909576 53.4152593,31.9992509 53.531037,32.219788 C53.5391852,32.2156325 53.5473333,32.2113286 53.5554815,32.2072473 C54.3307407,33.6187739 54.7854074,34.812583 54.1028889,36.1007067 C51.8299259,40.3913852 48.6951111,37.7381873 49.7862222,35.4976431 C50.3780741,34.2823887 51.5414815,33.3385018 52.8793333,32.5730035 C52.7564444,32.3390353 52.6373333,32.1185724 52.5246667,31.9145088 C51.3674815,32.4843286 50.4248889,33.0853887 49.891037,33.7551625 C48.1278519,35.9673604 48.0972593,38.372788 50.3311111,39.2903322 C52.565037,40.2077279 55.8394815,38.3888905 57.1491111,35.5964841 C57.7814074,34.248106 57.634963,33.1034205 57.1388148,31.7750777 C56.7995556,31.0110636 56.5099259,30.3401025 56.2887407,29.8205194 C55.8406667,28.847841 55.3332593,27.7384028 54.8676296,26.4004134 C54.6934815,25.8999011 54.554963,25.4312968 54.4481481,24.9916325 C54.0664444,24.0262261 54.0654815,23.0819682 54.1726667,22.3495654 C54.2908889,20.5427491 55.1383704,19.434424 56.048963,18.5063428 C57.650963,16.8736855 59.607037,17.1987774 59.541037,18.3292155 C59.436963,20.1131767 57.478963,21.3926926 54.8654815,22.8887385 C54.8548889,23.0636396 54.8528148,23.2471484 54.8632593,23.4370389 C55.9820741,22.871894 56.8919259,22.4027703 57.3527407,22.1333322 C58.8876296,21.2358233 61.3465926,18.8013074 59.9547407,17.1145548 L59.9547407,17.1145548 Z M57.434963,30.6082049 C57.5654074,30.5708057 57.7031852,30.5322191 57.842963,30.4931873 C57.8532593,30.2423004 57.8691852,30.0075901 57.8894074,29.7897986 C57.6672593,29.8545053 57.4294815,29.9280424 57.1762963,30.0111519 C57.2565185,30.197629 57.343037,30.3973887 57.434963,30.6082049 L57.434963,30.6082049 Z" id="Fill-26" fill="#FFFFFF"></path>
                <path d="M129.091111,27.3073463 C129.156296,27.4276325 129.22,27.5467314 129.282222,27.6630106 C130.802222,26.4986608 132.460741,25.5098799 133.754815,24.8050071 C133.823704,24.6435371 133.891852,24.4880035 133.957778,24.3387032 C133.508889,24.5420989 132.988148,24.8047102 132.392593,25.1447173 C131.488889,25.6610353 130.304444,26.406424 129.091111,27.3073463" id="Fill-27" fill="#FFFFFF"></path>
                <path d="M128.116296,27.0652155 C127.868148,26.6128622 127.677037,26.058106 127.537778,25.5535866 C126.525926,22.7018163 127.322222,20.388477 129.55037,18.6211378 C132.151111,16.5591307 133.140741,18.0753604 131.871111,20.3116007 C131.198519,21.4956148 129.565926,23.475477 128.178519,25.0767456 C128.219259,25.239477 128.265926,25.4114099 128.318519,25.5857173 C130.502222,23.1915689 132.597037,20.6169541 133.30963,19.2920989 C135.076296,16.0051908 128.302222,12.1247173 124.462222,21.4731307 C123.519259,23.7698481 124.70963,27.2455336 125.175556,28.3614276 C125.641481,29.4773216 125.96963,30.0206502 125.96963,30.0206502 C125.96963,30.0206502 125.957778,30.0346749 125.937037,30.0589399 C126.042963,30.2467527 126.146667,30.4401307 126.227407,30.5923993 C126.234074,30.5844594 126.24,30.5766678 126.246667,30.5688021 C127.348148,32.7472367 128.147407,34.3895406 126.612593,34.9008869 C123.814815,35.8331979 123.948889,33.6279753 125.914815,30.9957032 L125.60963,30.4542297 C125.104444,31.0735442 124.208889,32.214371 123.875556,32.9147915 C122.306667,36.2123852 126.98,37.364417 129.042222,35.4198763 C130.642222,33.9118092 130.39037,31.8200459 129.312593,29.307318 C129.186667,29.0656325 128.628148,27.9978233 128.116296,27.0652155" id="Fill-28" fill="#FFFFFF"></path>
                <path d="M77.5459259,24.9429541 L78.3044444,22.8746396 C73.2676296,21.2828693 70.6025926,17.2179965 72.6783704,9.84128269 C73.7974074,5.86456537 88.022963,3.03683746 88.022963,3.03683746 C88.022963,3.03683746 85.5555556,6.12591519 81.22,17.1311767 C80.717037,18.4073534 80.1896296,19.809159 79.6481481,21.2937774 L79.6703704,21.3017915 L78.2874074,25.0728869 C78.2911111,25.0734806 78.2955556,25.0741484 78.2992593,25.074742 C77.582963,27.1202014 76.8585185,29.2467668 76.1474074,31.3663569 C76.8718519,31.3193852 77.7866667,31.2953428 78.6740741,31.370735 C78.8874074,31.388841 79.0903704,31.4073922 79.2837037,31.4256466 C79.9518519,29.3884982 80.6333333,27.3066042 81.3259259,25.2141731 C81.3303704,25.2138763 81.3348148,25.2134311 81.34,25.2130601 L82.0274074,23.1475654 C82.0222222,23.14853 82.017037,23.1496431 82.0118519,23.1505336 C82.3051852,22.2737279 82.6,21.3970707 82.8962963,20.523159 C87.5348148,6.85416254 90.7362963,1.45716254 90.7362963,1.45716254 C90.7362963,1.45716254 70.7119259,4.5644947 69.5100741,9.74511307 C67.1781481,19.797212 71.8308889,23.8154841 77.5459259,24.9429541" id="Fill-29" fill="#FFFFFF"></path>
                <path d="M83.4377778,24.8558375 C83.6592593,24.2406042 83.937037,23.5048622 84.282963,22.6422297 C84.3740741,22.4149399 84.4659259,22.1946254 84.5577778,21.9800247 C84.0896296,22.3998021 83.5185185,22.7163604 82.8807407,22.9297739 L82.1488889,25.1293569 C82.6051852,25.0650212 83.0362963,24.9733039 83.4377778,24.8558375" id="Fill-30" fill="#FFFFFF"></path>
                <path d="M194.512593,39.4707244 C194.324444,38.6932049 181.394815,49.9471272 147.434074,48.0247739 C121.317037,46.5466113 90.0177778,34.9947562 81.4214815,32.5063675 C81.2096296,32.4449258 80.9985185,32.3897915 80.7881481,32.3397032 C80.2837037,32.2746996 79.5407407,32.1890671 78.6118519,32.1101131 C77.6466667,32.028265 76.6274074,32.0721201 75.8918519,32.1301484 C75.8911111,32.1315583 75.8903704,32.1329682 75.8903704,32.1344523 C69.8005185,33.0716608 65.0628889,38.3160954 63.9801481,43.1134452 C62.1826667,51.0775654 67.5005185,59.0349329 70.7721481,53.7884205 C71.7048148,52.292894 72.7142222,50.0568763 73.7880741,47.3083251 C73.7567407,47.3176749 73.7252593,47.3270247 73.6943704,47.3363746 C72.8308148,47.5957951 71.621037,47.8259788 70.6819259,47.984258 C70.1451111,49.5930954 69.7401481,50.7593004 69.5134074,51.3001802 C68.315037,54.159371 67.3997037,47.6721519 67.7295556,44.1183286 C67.9724444,41.5024558 69.249037,36.6254841 74.317037,34.9893392 C74.8222222,34.7596007 75.8525926,34.4080177 77.4392593,34.4032686 C77.782963,34.4020813 78.1288889,34.4165512 78.4681481,34.4417067 C79.3577778,34.4547668 80.3274074,34.4966926 81.3548148,34.7316254 C91.5259259,37.0579505 112.716296,47.1852933 144.125926,52.3154523 C175.392593,57.4224594 187.708889,51.91853 188.497037,51.4983074 C189.337778,51.0501837 195.891111,45.173894 194.512593,39.4707244" id="Fill-31" fill="#FFFFFF"></path>
                <path d="M77.4414815,35.145318 C76.0933333,35.1493251 75.1962963,35.4252933 74.7340741,35.6177067 C74.1007407,37.5387244 73.4918519,39.4023074 72.9257778,41.1379611 C73.4973333,40.9267739 74.1474074,40.6697279 74.8125926,40.3733534 C75.4866667,40.0732686 76.1044444,39.7366749 76.6259259,39.42353 C77.0933333,38.0488092 77.5696296,36.6227385 78.0540741,35.1600106 C77.8496296,35.1501413 77.6451852,35.1446502 77.4414815,35.145318" id="Fill-32" fill="#FFFFFF"></path>
            </g>
        </g>
    </g>
</svg>